<mxfile host="Electron" modified="2023-12-25T21:05:47.469Z" agent="Mozilla/5.0 (Windows NT 10.0; Win64; x64) AppleWebKit/537.36 (KHTML, like Gecko) draw.io/22.1.11 Chrome/114.0.5735.289 Electron/25.9.8 Safari/537.36" etag="HANhp3YEOL2tVeNoDA9S" version="22.1.11" type="device">
  <diagram name="Page-1" id="iMQ4scvDYvINq1XZOUV-">
    <mxGraphModel dx="2390" dy="1423" grid="0" gridSize="10" guides="1" tooltips="1" connect="1" arrows="1" fold="1" page="1" pageScale="1" pageWidth="850" pageHeight="1100" math="0" shadow="0">
      <root>
        <mxCell id="0" />
        <mxCell id="1" parent="0" />
        <mxCell id="M3VwBtbTwz1de0m6aLjh-106" value="" style="rounded=1;whiteSpace=wrap;html=1;arcSize=14;dashed=1;dashPattern=1 2;" vertex="1" parent="1">
          <mxGeometry x="1278" y="83" width="388" height="302" as="geometry" />
        </mxCell>
        <mxCell id="M3VwBtbTwz1de0m6aLjh-91" value="" style="rounded=1;whiteSpace=wrap;html=1;arcSize=30;dashed=1;dashPattern=1 2;" vertex="1" parent="1">
          <mxGeometry x="1216" y="157.5" width="13" height="209.5" as="geometry" />
        </mxCell>
        <mxCell id="M3VwBtbTwz1de0m6aLjh-63" value="" style="rounded=1;whiteSpace=wrap;html=1;fillColor=#dae8fc;strokeColor=#6c8ebf;" vertex="1" parent="1">
          <mxGeometry x="1324" y="326.5" width="290" height="43.5" as="geometry" />
        </mxCell>
        <mxCell id="M3VwBtbTwz1de0m6aLjh-37" value="" style="rounded=1;whiteSpace=wrap;html=1;fillColor=#b0e3e6;strokeColor=#0e8088;" vertex="1" parent="1">
          <mxGeometry x="1347" y="811.25" width="229" height="59" as="geometry" />
        </mxCell>
        <mxCell id="M3VwBtbTwz1de0m6aLjh-9" value="" style="rounded=1;whiteSpace=wrap;html=1;fillColor=#b1ddf0;strokeColor=#10739e;" vertex="1" parent="1">
          <mxGeometry x="1133" y="816.75" width="176" height="48" as="geometry" />
        </mxCell>
        <mxCell id="M3VwBtbTwz1de0m6aLjh-16" value="" style="rounded=1;whiteSpace=wrap;html=1;fillColor=#b1ddf0;strokeColor=#10739e;" vertex="1" parent="1">
          <mxGeometry x="1129" y="987" width="325" height="63" as="geometry" />
        </mxCell>
        <mxCell id="ECK3vgAFCEgA1QiS_V0F-1" value="&amp;nbsp;wash dishes" style="rounded=1;whiteSpace=wrap;html=1;align=left;fillColor=#f5f5f5;fontColor=#333333;strokeColor=#666666;" parent="1" vertex="1">
          <mxGeometry x="80" y="140" width="330" height="60" as="geometry" />
        </mxCell>
        <mxCell id="ECK3vgAFCEgA1QiS_V0F-3" value="" style="shape=ellipse;fillColor=#417D2C;strokeColor=#82b366;shadow=1;aspect=fixed;sketch=0;html=1;labelPosition=center;verticalLabelPosition=bottom;align=center;verticalAlign=top;" parent="1" vertex="1">
          <mxGeometry x="490" y="50" width="56" height="56" as="geometry" />
        </mxCell>
        <mxCell id="ECK3vgAFCEgA1QiS_V0F-4" value="" style="dashed=0;html=1;shape=mxgraph.gmdl.plus;strokeColor=#ffffff;strokeWidth=2;shadow=0;sketch=0;" parent="ECK3vgAFCEgA1QiS_V0F-3" vertex="1">
          <mxGeometry x="20" y="20" width="16" height="16" as="geometry" />
        </mxCell>
        <mxCell id="ECK3vgAFCEgA1QiS_V0F-13" value="" style="shape=ellipse;dashed=0;strokeColor=#d79b00;shadow=1;fontSize=13;align=center;verticalAlign=top;labelPosition=center;verticalLabelPosition=bottom;html=1;aspect=fixed;fillColor=#ffe6cc;" parent="1" vertex="1">
          <mxGeometry x="420" y="142" width="56" height="56" as="geometry" />
        </mxCell>
        <mxCell id="ECK3vgAFCEgA1QiS_V0F-14" value="" style="dashed=0;html=1;shape=mxgraph.gmdl.edit;strokeColor=none;fillColor=#737373;shadow=0;sketch=0;html=1;labelPosition=center;verticalLabelPosition=bottom;align=center;verticalAlign=top;" parent="ECK3vgAFCEgA1QiS_V0F-13" vertex="1">
          <mxGeometry x="18" y="18" width="20" height="20" as="geometry" />
        </mxCell>
        <mxCell id="ECK3vgAFCEgA1QiS_V0F-15" value="" style="shape=ellipse;dashed=0;strokeColor=#b85450;shadow=1;fontSize=13;align=center;verticalAlign=top;labelPosition=center;verticalLabelPosition=bottom;html=1;aspect=fixed;fillColor=#f8cecc;" parent="1" vertex="1">
          <mxGeometry x="490" y="140" width="56" height="56" as="geometry" />
        </mxCell>
        <mxCell id="ECK3vgAFCEgA1QiS_V0F-16" value="" style="dashed=0;html=1;shape=mxgraph.gmdl.x;strokeColor=#737373;strokeWidth=2;shadow=0;sketch=0;html=1;labelPosition=center;verticalLabelPosition=bottom;align=center;verticalAlign=top;" parent="ECK3vgAFCEgA1QiS_V0F-15" vertex="1">
          <mxGeometry x="20" y="20" width="16" height="16" as="geometry" />
        </mxCell>
        <mxCell id="ECK3vgAFCEgA1QiS_V0F-17" value="&amp;nbsp;cook dinner" style="rounded=1;whiteSpace=wrap;html=1;align=left;fillColor=#dae8fc;strokeColor=#6c8ebf;" parent="1" vertex="1">
          <mxGeometry x="80" y="210" width="330" height="60" as="geometry" />
        </mxCell>
        <mxCell id="ECK3vgAFCEgA1QiS_V0F-19" value="" style="shape=ellipse;dashed=0;strokeColor=#d79b00;shadow=1;fontSize=13;align=center;verticalAlign=top;labelPosition=center;verticalLabelPosition=bottom;html=1;aspect=fixed;fillColor=#ffe6cc;" parent="1" vertex="1">
          <mxGeometry x="420" y="212" width="56" height="56" as="geometry" />
        </mxCell>
        <mxCell id="ECK3vgAFCEgA1QiS_V0F-20" value="" style="dashed=0;html=1;shape=mxgraph.gmdl.edit;strokeColor=none;fillColor=#737373;shadow=0;sketch=0;html=1;labelPosition=center;verticalLabelPosition=bottom;align=center;verticalAlign=top;" parent="ECK3vgAFCEgA1QiS_V0F-19" vertex="1">
          <mxGeometry x="18" y="18" width="20" height="20" as="geometry" />
        </mxCell>
        <mxCell id="ECK3vgAFCEgA1QiS_V0F-21" value="" style="shape=ellipse;dashed=0;strokeColor=#b85450;shadow=1;fontSize=13;align=center;verticalAlign=top;labelPosition=center;verticalLabelPosition=bottom;html=1;aspect=fixed;fillColor=#f8cecc;" parent="1" vertex="1">
          <mxGeometry x="490" y="210" width="56" height="56" as="geometry" />
        </mxCell>
        <mxCell id="ECK3vgAFCEgA1QiS_V0F-22" value="" style="dashed=0;html=1;shape=mxgraph.gmdl.x;strokeColor=#737373;strokeWidth=2;shadow=0;sketch=0;html=1;labelPosition=center;verticalLabelPosition=bottom;align=center;verticalAlign=top;" parent="ECK3vgAFCEgA1QiS_V0F-21" vertex="1">
          <mxGeometry x="20" y="20" width="16" height="16" as="geometry" />
        </mxCell>
        <mxCell id="ECK3vgAFCEgA1QiS_V0F-23" value="" style="html=1;shadow=0;dashed=0;shape=mxgraph.bootstrap.checkbox2;labelPosition=right;verticalLabelPosition=middle;align=left;verticalAlign=middle;gradientColor=#DEDEDE;fillColor=#EDEDED;checked=0;spacing=5;checkedFill=#0085FC;checkedStroke=#ffffff;sketch=0;" parent="1" vertex="1">
          <mxGeometry x="40" y="156.5" width="30" height="27" as="geometry" />
        </mxCell>
        <mxCell id="ECK3vgAFCEgA1QiS_V0F-25" value="" style="verticalLabelPosition=bottom;verticalAlign=top;html=1;shape=mxgraph.basic.tick" parent="1" vertex="1">
          <mxGeometry x="50" y="163" width="10" height="14" as="geometry" />
        </mxCell>
        <mxCell id="ECK3vgAFCEgA1QiS_V0F-27" value="" style="html=1;shadow=0;dashed=0;shape=mxgraph.bootstrap.checkbox2;labelPosition=right;verticalLabelPosition=middle;align=left;verticalAlign=middle;gradientColor=#DEDEDE;fillColor=#EDEDED;checked=0;spacing=5;checkedFill=#0085FC;checkedStroke=#ffffff;sketch=0;" parent="1" vertex="1">
          <mxGeometry x="40" y="226.5" width="30" height="27" as="geometry" />
        </mxCell>
        <mxCell id="ECK3vgAFCEgA1QiS_V0F-28" value="" style="rounded=1;whiteSpace=wrap;html=1;align=left;" parent="1" vertex="1">
          <mxGeometry x="80" y="48" width="400" height="52" as="geometry" />
        </mxCell>
        <mxCell id="ECK3vgAFCEgA1QiS_V0F-29" value="" style="endArrow=none;html=1;strokeWidth=1;rounded=0;" parent="1" edge="1">
          <mxGeometry width="50" height="50" relative="1" as="geometry">
            <mxPoint x="85" y="171" as="sourcePoint" />
            <mxPoint x="160" y="171" as="targetPoint" />
          </mxGeometry>
        </mxCell>
        <mxCell id="ECK3vgAFCEgA1QiS_V0F-30" value="do homework" style="rounded=1;whiteSpace=wrap;html=1;align=left;fillColor=#dae8fc;strokeColor=#6c8ebf;" parent="1" vertex="1">
          <mxGeometry x="80" y="280" width="330" height="60" as="geometry" />
        </mxCell>
        <mxCell id="ECK3vgAFCEgA1QiS_V0F-31" value="" style="shape=ellipse;dashed=0;strokeColor=#d79b00;shadow=1;fontSize=13;align=center;verticalAlign=top;labelPosition=center;verticalLabelPosition=bottom;html=1;aspect=fixed;fillColor=#ffe6cc;" parent="1" vertex="1">
          <mxGeometry x="420" y="282" width="56" height="56" as="geometry" />
        </mxCell>
        <mxCell id="ECK3vgAFCEgA1QiS_V0F-32" value="" style="dashed=0;html=1;shape=mxgraph.gmdl.edit;strokeColor=none;fillColor=#737373;shadow=0;sketch=0;html=1;labelPosition=center;verticalLabelPosition=bottom;align=center;verticalAlign=top;" parent="ECK3vgAFCEgA1QiS_V0F-31" vertex="1">
          <mxGeometry x="18" y="18" width="20" height="20" as="geometry" />
        </mxCell>
        <mxCell id="ECK3vgAFCEgA1QiS_V0F-33" value="" style="shape=ellipse;dashed=0;strokeColor=#b85450;shadow=1;fontSize=13;align=center;verticalAlign=top;labelPosition=center;verticalLabelPosition=bottom;html=1;aspect=fixed;fillColor=#f8cecc;" parent="1" vertex="1">
          <mxGeometry x="490" y="280" width="56" height="56" as="geometry" />
        </mxCell>
        <mxCell id="ECK3vgAFCEgA1QiS_V0F-34" value="" style="dashed=0;html=1;shape=mxgraph.gmdl.x;strokeColor=#737373;strokeWidth=2;shadow=0;sketch=0;html=1;labelPosition=center;verticalLabelPosition=bottom;align=center;verticalAlign=top;" parent="ECK3vgAFCEgA1QiS_V0F-33" vertex="1">
          <mxGeometry x="20" y="20" width="16" height="16" as="geometry" />
        </mxCell>
        <mxCell id="ECK3vgAFCEgA1QiS_V0F-35" value="" style="html=1;shadow=0;dashed=0;shape=mxgraph.bootstrap.checkbox2;labelPosition=right;verticalLabelPosition=middle;align=left;verticalAlign=middle;gradientColor=#DEDEDE;fillColor=#EDEDED;checked=0;spacing=5;checkedFill=#0085FC;checkedStroke=#ffffff;sketch=0;" parent="1" vertex="1">
          <mxGeometry x="40" y="296.5" width="30" height="27" as="geometry" />
        </mxCell>
        <mxCell id="M3VwBtbTwz1de0m6aLjh-1" value="Add Task" style="rounded=1;whiteSpace=wrap;html=1;fillColor=#1ba1e2;strokeColor=#006EAF;fontColor=#ffffff;" vertex="1" parent="1">
          <mxGeometry x="1334" y="996.5" width="80" height="44" as="geometry" />
        </mxCell>
        <mxCell id="M3VwBtbTwz1de0m6aLjh-41" style="edgeStyle=orthogonalEdgeStyle;rounded=0;orthogonalLoop=1;jettySize=auto;html=1;entryX=0;entryY=0.5;entryDx=0;entryDy=0;" edge="1" parent="1" source="M3VwBtbTwz1de0m6aLjh-2" target="M3VwBtbTwz1de0m6aLjh-40">
          <mxGeometry relative="1" as="geometry" />
        </mxCell>
        <mxCell id="M3VwBtbTwz1de0m6aLjh-2" value="POST /task" style="rounded=1;whiteSpace=wrap;html=1;fillColor=#e1d5e7;strokeColor=#9673a6;" vertex="1" parent="1">
          <mxGeometry x="1364" y="825.25" width="85" height="33" as="geometry" />
        </mxCell>
        <mxCell id="M3VwBtbTwz1de0m6aLjh-10" style="edgeStyle=orthogonalEdgeStyle;rounded=0;orthogonalLoop=1;jettySize=auto;html=1;entryX=0;entryY=0.5;entryDx=0;entryDy=0;" edge="1" parent="1" source="M3VwBtbTwz1de0m6aLjh-4" target="M3VwBtbTwz1de0m6aLjh-7">
          <mxGeometry relative="1" as="geometry" />
        </mxCell>
        <mxCell id="M3VwBtbTwz1de0m6aLjh-15" style="edgeStyle=orthogonalEdgeStyle;rounded=0;orthogonalLoop=1;jettySize=auto;html=1;entryX=0;entryY=0.5;entryDx=0;entryDy=0;" edge="1" parent="1" source="M3VwBtbTwz1de0m6aLjh-4" target="M3VwBtbTwz1de0m6aLjh-14">
          <mxGeometry relative="1" as="geometry" />
        </mxCell>
        <mxCell id="M3VwBtbTwz1de0m6aLjh-4" value="Build Page" style="rounded=1;whiteSpace=wrap;html=1;fillColor=#b0e3e6;strokeColor=#0e8088;" vertex="1" parent="1">
          <mxGeometry x="881" y="665.75" width="120" height="60" as="geometry" />
        </mxCell>
        <mxCell id="M3VwBtbTwz1de0m6aLjh-13" style="edgeStyle=orthogonalEdgeStyle;rounded=0;orthogonalLoop=1;jettySize=auto;html=1;entryX=0;entryY=0.5;entryDx=0;entryDy=0;exitX=0.5;exitY=1;exitDx=0;exitDy=0;" edge="1" parent="1" source="M3VwBtbTwz1de0m6aLjh-7" target="M3VwBtbTwz1de0m6aLjh-9">
          <mxGeometry relative="1" as="geometry">
            <mxPoint x="1127" y="813.75" as="targetPoint" />
          </mxGeometry>
        </mxCell>
        <mxCell id="M3VwBtbTwz1de0m6aLjh-7" value="Bind handlers in&lt;br&gt;&quot;Add New Task&quot;&lt;br&gt;form" style="rounded=1;whiteSpace=wrap;html=1;fillColor=#b0e3e6;strokeColor=#0e8088;" vertex="1" parent="1">
          <mxGeometry x="980" y="741.75" width="120" height="60" as="geometry" />
        </mxCell>
        <mxCell id="M3VwBtbTwz1de0m6aLjh-35" style="edgeStyle=orthogonalEdgeStyle;rounded=0;orthogonalLoop=1;jettySize=auto;html=1;entryX=0;entryY=0.5;entryDx=0;entryDy=0;" edge="1" parent="1" source="M3VwBtbTwz1de0m6aLjh-8" target="M3VwBtbTwz1de0m6aLjh-1">
          <mxGeometry relative="1" as="geometry" />
        </mxCell>
        <mxCell id="M3VwBtbTwz1de0m6aLjh-72" value="for each :" style="edgeLabel;html=1;align=center;verticalAlign=middle;resizable=0;points=[];labelBackgroundColor=none;" vertex="1" connectable="0" parent="M3VwBtbTwz1de0m6aLjh-35">
          <mxGeometry x="-0.5403" relative="1" as="geometry">
            <mxPoint x="24" y="11" as="offset" />
          </mxGeometry>
        </mxCell>
        <mxCell id="M3VwBtbTwz1de0m6aLjh-8" value="GET /task" style="rounded=1;whiteSpace=wrap;html=1;fillColor=#e1d5e7;strokeColor=#9673a6;" vertex="1" parent="1">
          <mxGeometry x="1147.5" y="997.5" width="93" height="42" as="geometry" />
        </mxCell>
        <mxCell id="M3VwBtbTwz1de0m6aLjh-11" value="input" style="rounded=1;whiteSpace=wrap;html=1;fillColor=#fad7ac;strokeColor=#b46504;" vertex="1" parent="1">
          <mxGeometry x="1145.5" y="827.75" width="120" height="27" as="geometry" />
        </mxCell>
        <mxCell id="M3VwBtbTwz1de0m6aLjh-36" style="edgeStyle=orthogonalEdgeStyle;rounded=0;orthogonalLoop=1;jettySize=auto;html=1;entryX=0;entryY=0.5;entryDx=0;entryDy=0;" edge="1" parent="1" source="M3VwBtbTwz1de0m6aLjh-12" target="M3VwBtbTwz1de0m6aLjh-37">
          <mxGeometry relative="1" as="geometry" />
        </mxCell>
        <mxCell id="M3VwBtbTwz1de0m6aLjh-12" value="+" style="ellipse;whiteSpace=wrap;html=1;aspect=fixed;fillColor=#fad7ac;strokeColor=#b46504;" vertex="1" parent="1">
          <mxGeometry x="1270" y="826.25" width="29" height="29" as="geometry" />
        </mxCell>
        <mxCell id="M3VwBtbTwz1de0m6aLjh-17" style="edgeStyle=orthogonalEdgeStyle;rounded=0;orthogonalLoop=1;jettySize=auto;html=1;entryX=0;entryY=0.5;entryDx=0;entryDy=0;exitX=0.5;exitY=1;exitDx=0;exitDy=0;" edge="1" parent="1" source="M3VwBtbTwz1de0m6aLjh-14" target="M3VwBtbTwz1de0m6aLjh-16">
          <mxGeometry relative="1" as="geometry" />
        </mxCell>
        <mxCell id="M3VwBtbTwz1de0m6aLjh-14" value="Build&lt;br&gt;list of all &lt;br&gt;existing tasks" style="rounded=1;whiteSpace=wrap;html=1;fillColor=#b0e3e6;strokeColor=#0e8088;" vertex="1" parent="1">
          <mxGeometry x="973.5" y="902.25" width="120" height="60" as="geometry" />
        </mxCell>
        <mxCell id="M3VwBtbTwz1de0m6aLjh-38" value="Post new task" style="text;html=1;strokeColor=none;fillColor=none;align=center;verticalAlign=middle;whiteSpace=wrap;rounded=0;" vertex="1" parent="1">
          <mxGeometry x="1397.5" y="783.75" width="121" height="30" as="geometry" />
        </mxCell>
        <mxCell id="M3VwBtbTwz1de0m6aLjh-51" style="edgeStyle=orthogonalEdgeStyle;rounded=0;orthogonalLoop=1;jettySize=auto;html=1;entryX=0;entryY=0.5;entryDx=0;entryDy=0;exitX=0.5;exitY=1;exitDx=0;exitDy=0;" edge="1" parent="1" source="M3VwBtbTwz1de0m6aLjh-39" target="M3VwBtbTwz1de0m6aLjh-42">
          <mxGeometry relative="1" as="geometry">
            <Array as="points">
              <mxPoint x="949" y="413.5" />
            </Array>
          </mxGeometry>
        </mxCell>
        <mxCell id="M3VwBtbTwz1de0m6aLjh-53" style="edgeStyle=orthogonalEdgeStyle;rounded=0;orthogonalLoop=1;jettySize=auto;html=1;entryX=0;entryY=0.5;entryDx=0;entryDy=0;exitX=0.5;exitY=1;exitDx=0;exitDy=0;" edge="1" parent="1" source="M3VwBtbTwz1de0m6aLjh-39" target="M3VwBtbTwz1de0m6aLjh-52">
          <mxGeometry relative="1" as="geometry" />
        </mxCell>
        <mxCell id="M3VwBtbTwz1de0m6aLjh-39" value="Add Task" style="rounded=1;whiteSpace=wrap;html=1;fillColor=#1ba1e2;strokeColor=#006EAF;fontColor=#ffffff;" vertex="1" parent="1">
          <mxGeometry x="909" y="337.5" width="80" height="44" as="geometry" />
        </mxCell>
        <mxCell id="M3VwBtbTwz1de0m6aLjh-40" value="Add Task" style="rounded=1;whiteSpace=wrap;html=1;fillColor=#1ba1e2;strokeColor=#006EAF;fontColor=#ffffff;" vertex="1" parent="1">
          <mxGeometry x="1490" y="819.75" width="80" height="44" as="geometry" />
        </mxCell>
        <mxCell id="M3VwBtbTwz1de0m6aLjh-42" value="" style="rounded=1;whiteSpace=wrap;html=1;fillColor=#b1ddf0;strokeColor=#10739e;" vertex="1" parent="1">
          <mxGeometry x="1005" y="391" width="224" height="45" as="geometry" />
        </mxCell>
        <mxCell id="M3VwBtbTwz1de0m6aLjh-43" value="Title" style="rounded=1;whiteSpace=wrap;html=1;fillColor=#ffe6cc;strokeColor=#d79b00;" vertex="1" parent="1">
          <mxGeometry x="1024.5" y="401" width="120" height="22" as="geometry" />
        </mxCell>
        <mxCell id="M3VwBtbTwz1de0m6aLjh-58" style="edgeStyle=orthogonalEdgeStyle;rounded=0;orthogonalLoop=1;jettySize=auto;html=1;entryX=0;entryY=0.5;entryDx=0;entryDy=0;exitX=0.5;exitY=0;exitDx=0;exitDy=0;" edge="1" parent="1" source="M3VwBtbTwz1de0m6aLjh-44" target="M3VwBtbTwz1de0m6aLjh-65">
          <mxGeometry relative="1" as="geometry">
            <mxPoint x="1310.0000000000002" y="526" as="targetPoint" />
          </mxGeometry>
        </mxCell>
        <mxCell id="M3VwBtbTwz1de0m6aLjh-44" value="" style="shape=ellipse;dashed=0;strokeColor=#d79b00;shadow=0;fontSize=13;align=center;verticalAlign=top;labelPosition=center;verticalLabelPosition=bottom;html=1;aspect=fixed;fillColor=#ffe6cc;" vertex="1" parent="1">
          <mxGeometry x="1172.5" y="404" width="16" height="16" as="geometry" />
        </mxCell>
        <mxCell id="M3VwBtbTwz1de0m6aLjh-45" value="" style="dashed=0;html=1;shape=mxgraph.gmdl.edit;strokeColor=none;fillColor=#737373;shadow=0;sketch=0;html=1;labelPosition=center;verticalLabelPosition=bottom;align=center;verticalAlign=top;" vertex="1" parent="M3VwBtbTwz1de0m6aLjh-44">
          <mxGeometry x="5.142857142857143" y="5.142857142857143" width="5.714285714285715" height="5.714285714285715" as="geometry" />
        </mxCell>
        <mxCell id="M3VwBtbTwz1de0m6aLjh-46" value="" style="shape=ellipse;dashed=0;strokeColor=#b85450;shadow=0;fontSize=13;align=center;verticalAlign=top;labelPosition=center;verticalLabelPosition=bottom;html=1;aspect=fixed;fillColor=#f8cecc;" vertex="1" parent="1">
          <mxGeometry x="1193.5" y="404" width="16" height="16" as="geometry" />
        </mxCell>
        <mxCell id="M3VwBtbTwz1de0m6aLjh-47" value="" style="dashed=0;html=1;shape=mxgraph.gmdl.x;strokeColor=#737373;strokeWidth=2;shadow=0;sketch=0;html=1;labelPosition=center;verticalLabelPosition=bottom;align=center;verticalAlign=top;" vertex="1" parent="M3VwBtbTwz1de0m6aLjh-46">
          <mxGeometry x="5.714285714285715" y="5.714285714285715" width="4.571428571428572" height="4.571428571428572" as="geometry" />
        </mxCell>
        <mxCell id="M3VwBtbTwz1de0m6aLjh-48" value="" style="group" vertex="1" connectable="0" parent="1">
          <mxGeometry x="1152.5" y="404" width="16" height="16" as="geometry" />
        </mxCell>
        <mxCell id="M3VwBtbTwz1de0m6aLjh-49" value="" style="shape=ellipse;dashed=0;strokeColor=#d79b00;shadow=0;fontSize=13;align=center;verticalAlign=top;labelPosition=center;verticalLabelPosition=bottom;html=1;aspect=fixed;fillColor=#ffe6cc;" vertex="1" parent="M3VwBtbTwz1de0m6aLjh-48">
          <mxGeometry width="16" height="16" as="geometry" />
        </mxCell>
        <mxCell id="M3VwBtbTwz1de0m6aLjh-50" value="" style="verticalLabelPosition=bottom;verticalAlign=top;html=1;shape=mxgraph.basic.tick;fillColor=#808080;strokeColor=none;" vertex="1" parent="M3VwBtbTwz1de0m6aLjh-48">
          <mxGeometry x="5.285714285714334" y="5" width="5.428571428571429" height="6" as="geometry" />
        </mxCell>
        <mxCell id="M3VwBtbTwz1de0m6aLjh-52" value="add new &amp;lt;li&amp;gt; to the &amp;lt;ul&amp;gt;" style="rounded=1;whiteSpace=wrap;html=1;fillColor=#b1ddf0;strokeColor=#10739e;" vertex="1" parent="1">
          <mxGeometry x="1005" y="449.5" width="221" height="46" as="geometry" />
        </mxCell>
        <mxCell id="M3VwBtbTwz1de0m6aLjh-57" style="edgeStyle=orthogonalEdgeStyle;rounded=0;orthogonalLoop=1;jettySize=auto;html=1;entryX=0;entryY=0.5;entryDx=0;entryDy=0;exitX=0.5;exitY=0;exitDx=0;exitDy=0;" edge="1" parent="1" source="M3VwBtbTwz1de0m6aLjh-46" target="M3VwBtbTwz1de0m6aLjh-63">
          <mxGeometry relative="1" as="geometry">
            <mxPoint x="1296" y="700.5" as="sourcePoint" />
            <mxPoint x="1310.0000000000002" y="445.25" as="targetPoint" />
          </mxGeometry>
        </mxCell>
        <mxCell id="M3VwBtbTwz1de0m6aLjh-59" style="edgeStyle=orthogonalEdgeStyle;rounded=0;orthogonalLoop=1;jettySize=auto;html=1;entryX=0;entryY=0.5;entryDx=0;entryDy=0;exitX=0.5;exitY=0;exitDx=0;exitDy=0;" edge="1" parent="1" source="M3VwBtbTwz1de0m6aLjh-49" target="M3VwBtbTwz1de0m6aLjh-67">
          <mxGeometry relative="1" as="geometry">
            <mxPoint x="1310.0000000000002" y="616.9999999999998" as="targetPoint" />
          </mxGeometry>
        </mxCell>
        <mxCell id="M3VwBtbTwz1de0m6aLjh-62" style="edgeStyle=orthogonalEdgeStyle;rounded=0;orthogonalLoop=1;jettySize=auto;html=1;entryX=0;entryY=0.5;entryDx=0;entryDy=0;" edge="1" parent="1" source="M3VwBtbTwz1de0m6aLjh-60" target="M3VwBtbTwz1de0m6aLjh-61">
          <mxGeometry relative="1" as="geometry" />
        </mxCell>
        <mxCell id="M3VwBtbTwz1de0m6aLjh-60" value="DELETE /task/{id}" style="rounded=1;whiteSpace=wrap;html=1;fillColor=#e1d5e7;strokeColor=#9673a6;" vertex="1" parent="1">
          <mxGeometry x="1334.5" y="330.5" width="115" height="33" as="geometry" />
        </mxCell>
        <mxCell id="M3VwBtbTwz1de0m6aLjh-61" value="delete &amp;lt;li&amp;gt; &lt;br&gt;from &amp;lt;ul&amp;gt;" style="rounded=1;whiteSpace=wrap;html=1;fillColor=#ffe6cc;strokeColor=#d79b00;" vertex="1" parent="1">
          <mxGeometry x="1483" y="330" width="109" height="34" as="geometry" />
        </mxCell>
        <mxCell id="M3VwBtbTwz1de0m6aLjh-65" value="... TBD" style="rounded=1;whiteSpace=wrap;html=1;fillColor=#dae8fc;strokeColor=#6c8ebf;" vertex="1" parent="1">
          <mxGeometry x="1319" y="249" width="295" height="35.5" as="geometry" />
        </mxCell>
        <mxCell id="M3VwBtbTwz1de0m6aLjh-67" value="" style="rounded=1;whiteSpace=wrap;html=1;fillColor=#dae8fc;strokeColor=#6c8ebf;" vertex="1" parent="1">
          <mxGeometry x="1323" y="153.5" width="289" height="51.5" as="geometry" />
        </mxCell>
        <mxCell id="M3VwBtbTwz1de0m6aLjh-70" style="edgeStyle=orthogonalEdgeStyle;rounded=0;orthogonalLoop=1;jettySize=auto;html=1;entryX=0;entryY=0.5;entryDx=0;entryDy=0;" edge="1" parent="1" source="M3VwBtbTwz1de0m6aLjh-68" target="M3VwBtbTwz1de0m6aLjh-69">
          <mxGeometry relative="1" as="geometry" />
        </mxCell>
        <mxCell id="M3VwBtbTwz1de0m6aLjh-68" value="PUT /task/{id}&lt;br&gt;{done: newDone}" style="rounded=1;whiteSpace=wrap;html=1;fillColor=#e1d5e7;strokeColor=#9673a6;" vertex="1" parent="1">
          <mxGeometry x="1336" y="162.5" width="115" height="33" as="geometry" />
        </mxCell>
        <mxCell id="M3VwBtbTwz1de0m6aLjh-69" value="update &amp;lt;li&amp;gt;" style="rounded=1;whiteSpace=wrap;html=1;fillColor=#ffe6cc;strokeColor=#d79b00;" vertex="1" parent="1">
          <mxGeometry x="1493" y="160" width="109" height="38" as="geometry" />
        </mxCell>
        <mxCell id="M3VwBtbTwz1de0m6aLjh-74" value="&lt;font color=&quot;#2f0fff&quot;&gt;deleteTaskHandler(event)&lt;/font&gt;" style="text;html=1;strokeColor=none;fillColor=none;align=center;verticalAlign=middle;whiteSpace=wrap;rounded=0;" vertex="1" parent="1">
          <mxGeometry x="1402" y="300.5" width="152" height="30" as="geometry" />
        </mxCell>
        <mxCell id="M3VwBtbTwz1de0m6aLjh-75" value="&lt;font color=&quot;#2f0fff&quot;&gt;editTaskHandler(event)&lt;/font&gt;" style="text;html=1;strokeColor=none;fillColor=none;align=center;verticalAlign=middle;whiteSpace=wrap;rounded=0;" vertex="1" parent="1">
          <mxGeometry x="1398" y="224.5" width="152" height="30" as="geometry" />
        </mxCell>
        <mxCell id="M3VwBtbTwz1de0m6aLjh-76" value="&lt;font color=&quot;#2f0fff&quot;&gt;toggleCompleteTaskHandler(event)&lt;/font&gt;" style="text;html=1;strokeColor=none;fillColor=none;align=center;verticalAlign=middle;whiteSpace=wrap;rounded=0;" vertex="1" parent="1">
          <mxGeometry x="1372" y="128.5" width="238" height="30" as="geometry" />
        </mxCell>
        <mxCell id="M3VwBtbTwz1de0m6aLjh-77" value="&lt;font style=&quot;font-size: 14px;&quot;&gt;&lt;b&gt;1&lt;/b&gt;&lt;/font&gt;" style="ellipse;whiteSpace=wrap;html=1;aspect=fixed;fillColor=#0050ef;fontColor=#ffffff;strokeColor=#001DBC;" vertex="1" parent="1">
          <mxGeometry x="989" y="624.75" width="29.5" height="29.5" as="geometry" />
        </mxCell>
        <mxCell id="M3VwBtbTwz1de0m6aLjh-78" value="&lt;font style=&quot;font-size: 14px;&quot;&gt;&lt;b&gt;2&lt;/b&gt;&lt;/font&gt;" style="ellipse;whiteSpace=wrap;html=1;aspect=fixed;fillColor=#0050ef;fontColor=#ffffff;strokeColor=#001DBC;" vertex="1" parent="1">
          <mxGeometry x="1039" y="704.75" width="29.5" height="29.5" as="geometry" />
        </mxCell>
        <mxCell id="M3VwBtbTwz1de0m6aLjh-79" value="&lt;font style=&quot;font-size: 14px;&quot;&gt;&lt;b&gt;3&lt;/b&gt;&lt;/font&gt;" style="ellipse;whiteSpace=wrap;html=1;aspect=fixed;fillColor=#0050ef;fontColor=#ffffff;strokeColor=#001DBC;" vertex="1" parent="1">
          <mxGeometry x="1353" y="775.75" width="29.5" height="29.5" as="geometry" />
        </mxCell>
        <mxCell id="M3VwBtbTwz1de0m6aLjh-80" value="&lt;font style=&quot;font-size: 14px;&quot;&gt;&lt;b&gt;4&lt;/b&gt;&lt;/font&gt;" style="ellipse;whiteSpace=wrap;html=1;aspect=fixed;fillColor=#0050ef;fontColor=#ffffff;strokeColor=#001DBC;" vertex="1" parent="1">
          <mxGeometry x="1030" y="867.75" width="29.5" height="29.5" as="geometry" />
        </mxCell>
        <mxCell id="M3VwBtbTwz1de0m6aLjh-83" style="rounded=0;orthogonalLoop=1;jettySize=auto;html=1;entryX=0.5;entryY=1;entryDx=0;entryDy=0;endArrow=none;endFill=0;dashed=1;dashPattern=1 2;fontStyle=1;exitX=0.5;exitY=0;exitDx=0;exitDy=0;jumpSize=2;strokeWidth=1;" edge="1" parent="1" source="M3VwBtbTwz1de0m6aLjh-81" target="M3VwBtbTwz1de0m6aLjh-40">
          <mxGeometry relative="1" as="geometry" />
        </mxCell>
        <mxCell id="M3VwBtbTwz1de0m6aLjh-81" value="&lt;font style=&quot;font-size: 14px;&quot;&gt;&lt;b&gt;5&lt;/b&gt;&lt;/font&gt;" style="ellipse;whiteSpace=wrap;html=1;aspect=fixed;fillColor=#0050ef;fontColor=#ffffff;strokeColor=#001DBC;" vertex="1" parent="1">
          <mxGeometry x="1526" y="949.75" width="29.5" height="29.5" as="geometry" />
        </mxCell>
        <mxCell id="M3VwBtbTwz1de0m6aLjh-84" style="rounded=0;orthogonalLoop=1;jettySize=auto;html=1;entryX=1;entryY=0.5;entryDx=0;entryDy=0;endArrow=none;endFill=0;dashed=1;dashPattern=1 2;exitX=0;exitY=0.5;exitDx=0;exitDy=0;" edge="1" parent="1" source="M3VwBtbTwz1de0m6aLjh-81" target="M3VwBtbTwz1de0m6aLjh-1">
          <mxGeometry relative="1" as="geometry">
            <mxPoint x="1546" y="1006.25" as="sourcePoint" />
            <mxPoint x="1500" y="943.25" as="targetPoint" />
          </mxGeometry>
        </mxCell>
        <mxCell id="M3VwBtbTwz1de0m6aLjh-85" value="&lt;font style=&quot;font-size: 14px;&quot;&gt;&lt;b&gt;5&lt;/b&gt;&lt;/font&gt;" style="ellipse;whiteSpace=wrap;html=1;aspect=fixed;fillColor=#0050ef;fontColor=#ffffff;strokeColor=#001DBC;" vertex="1" parent="1">
          <mxGeometry x="954" y="300.5" width="29.5" height="29.5" as="geometry" />
        </mxCell>
        <mxCell id="M3VwBtbTwz1de0m6aLjh-86" value="&lt;font style=&quot;font-size: 14px;&quot;&gt;&lt;b&gt;6&lt;/b&gt;&lt;/font&gt;" style="ellipse;whiteSpace=wrap;html=1;aspect=fixed;fillColor=#0050ef;fontColor=#ffffff;strokeColor=#001DBC;" vertex="1" parent="1">
          <mxGeometry x="1349" y="118.5" width="29.5" height="29.5" as="geometry" />
        </mxCell>
        <mxCell id="M3VwBtbTwz1de0m6aLjh-87" value="&lt;font style=&quot;font-size: 14px;&quot;&gt;&lt;b&gt;7&lt;/b&gt;&lt;/font&gt;" style="ellipse;whiteSpace=wrap;html=1;aspect=fixed;fillColor=#0050ef;fontColor=#ffffff;strokeColor=#001DBC;" vertex="1" parent="1">
          <mxGeometry x="1349" y="215.25" width="29.5" height="29.5" as="geometry" />
        </mxCell>
        <mxCell id="M3VwBtbTwz1de0m6aLjh-88" value="&lt;font style=&quot;font-size: 14px;&quot;&gt;&lt;b&gt;8&lt;/b&gt;&lt;/font&gt;" style="ellipse;whiteSpace=wrap;html=1;aspect=fixed;fillColor=#0050ef;fontColor=#ffffff;strokeColor=#001DBC;" vertex="1" parent="1">
          <mxGeometry x="1349" y="293.25" width="29.5" height="29.5" as="geometry" />
        </mxCell>
        <mxCell id="M3VwBtbTwz1de0m6aLjh-92" value="Add event listener" style="text;html=1;strokeColor=none;fillColor=none;align=center;verticalAlign=middle;whiteSpace=wrap;rounded=0;" vertex="1" parent="1">
          <mxGeometry x="1192.5" y="120.5" width="60" height="30" as="geometry" />
        </mxCell>
        <mxCell id="M3VwBtbTwz1de0m6aLjh-94" style="rounded=0;orthogonalLoop=1;jettySize=auto;html=1;entryX=0.5;entryY=0;entryDx=0;entryDy=0;dashed=1;dashPattern=1 2;endArrow=none;endFill=0;" edge="1" parent="1" source="M3VwBtbTwz1de0m6aLjh-93" target="M3VwBtbTwz1de0m6aLjh-9">
          <mxGeometry relative="1" as="geometry" />
        </mxCell>
        <mxCell id="M3VwBtbTwz1de0m6aLjh-99" style="rounded=0;orthogonalLoop=1;jettySize=auto;html=1;entryX=0;entryY=0.5;entryDx=0;entryDy=0;dashed=1;dashPattern=1 2;endArrow=none;endFill=0;" edge="1" parent="1" source="M3VwBtbTwz1de0m6aLjh-93" target="M3VwBtbTwz1de0m6aLjh-98">
          <mxGeometry relative="1" as="geometry" />
        </mxCell>
        <mxCell id="M3VwBtbTwz1de0m6aLjh-93" value="this step is inside (2)&lt;br&gt;&lt;br&gt;here we use DOM API to get references to the existing html tags and add event listeners to them" style="shape=note;whiteSpace=wrap;html=1;backgroundOutline=1;darkOpacity=0.05;size=14;align=left;" vertex="1" parent="1">
          <mxGeometry x="1155.5" y="646.75" width="132.5" height="117.5" as="geometry" />
        </mxCell>
        <mxCell id="M3VwBtbTwz1de0m6aLjh-95" value="" style="shape=ellipse;fillColor=#417D2C;strokeColor=#82b366;shadow=1;aspect=fixed;sketch=0;html=1;labelPosition=center;verticalLabelPosition=bottom;align=center;verticalAlign=top;" vertex="1" parent="1">
          <mxGeometry x="1506" y="612" width="56" height="56" as="geometry" />
        </mxCell>
        <mxCell id="M3VwBtbTwz1de0m6aLjh-96" value="" style="dashed=0;html=1;shape=mxgraph.gmdl.plus;strokeColor=#ffffff;strokeWidth=2;shadow=0;sketch=0;" vertex="1" parent="M3VwBtbTwz1de0m6aLjh-95">
          <mxGeometry x="20" y="20" width="16" height="16" as="geometry" />
        </mxCell>
        <mxCell id="M3VwBtbTwz1de0m6aLjh-97" value="Add new task" style="rounded=1;whiteSpace=wrap;html=1;align=left;" vertex="1" parent="1">
          <mxGeometry x="1329.5" y="616" width="170.5" height="52" as="geometry" />
        </mxCell>
        <mxCell id="M3VwBtbTwz1de0m6aLjh-98" value="" style="rounded=1;whiteSpace=wrap;html=1;fillOpacity=50;dashed=1;dashPattern=1 4;" vertex="1" parent="1">
          <mxGeometry x="1318" y="596" width="260" height="87" as="geometry" />
        </mxCell>
        <mxCell id="M3VwBtbTwz1de0m6aLjh-101" style="rounded=0;orthogonalLoop=1;jettySize=auto;html=1;entryX=0.5;entryY=0;entryDx=0;entryDy=0;dashed=1;dashPattern=1 2;endArrow=none;endFill=0;" edge="1" parent="1" source="M3VwBtbTwz1de0m6aLjh-100" target="M3VwBtbTwz1de0m6aLjh-16">
          <mxGeometry relative="1" as="geometry" />
        </mxCell>
        <mxCell id="M3VwBtbTwz1de0m6aLjh-100" value="this step is inside (4)&lt;br&gt;&lt;br&gt;use FetchAPI to get all tasks from server and inside fetch, for each task call &quot;Add Task&quot; function." style="shape=note;whiteSpace=wrap;html=1;backgroundOutline=1;darkOpacity=0.05;size=14;align=left;" vertex="1" parent="1">
          <mxGeometry x="1132.5" y="897.75" width="286.5" height="69" as="geometry" />
        </mxCell>
        <mxCell id="M3VwBtbTwz1de0m6aLjh-102" value="these 2 steps are inside (5).&lt;br&gt;&lt;br&gt;here we use DOM API to create new HTML elements for a new task and get reference to the existing &amp;lt;ul&amp;gt; and add new &amp;lt;li&amp;gt; in there." style="shape=note;whiteSpace=wrap;html=1;backgroundOutline=1;darkOpacity=0.05;size=14;align=left;" vertex="1" parent="1">
          <mxGeometry x="1273" y="400" width="159" height="126" as="geometry" />
        </mxCell>
        <mxCell id="M3VwBtbTwz1de0m6aLjh-103" style="rounded=0;orthogonalLoop=1;jettySize=auto;html=1;entryX=0;entryY=0.5;entryDx=0;entryDy=0;entryPerimeter=0;exitX=1;exitY=0.5;exitDx=0;exitDy=0;dashed=1;dashPattern=1 2;endArrow=none;endFill=0;" edge="1" parent="1" source="M3VwBtbTwz1de0m6aLjh-42" target="M3VwBtbTwz1de0m6aLjh-102">
          <mxGeometry relative="1" as="geometry" />
        </mxCell>
        <mxCell id="M3VwBtbTwz1de0m6aLjh-104" style="rounded=0;orthogonalLoop=1;jettySize=auto;html=1;entryX=0;entryY=0.5;entryDx=0;entryDy=0;entryPerimeter=0;dashed=1;dashPattern=1 2;endArrow=none;endFill=0;" edge="1" parent="1" source="M3VwBtbTwz1de0m6aLjh-52" target="M3VwBtbTwz1de0m6aLjh-102">
          <mxGeometry relative="1" as="geometry" />
        </mxCell>
        <mxCell id="M3VwBtbTwz1de0m6aLjh-105" value="6, 7, 8 - are separate functions. they must be capable to work independently.&amp;nbsp;&lt;br&gt;function param could be event or whatever suites the best." style="shape=note;whiteSpace=wrap;html=1;backgroundOutline=1;darkOpacity=0.05;size=14;align=left;" vertex="1" parent="1">
          <mxGeometry x="1396" y="34" width="223" height="82" as="geometry" />
        </mxCell>
      </root>
    </mxGraphModel>
  </diagram>
</mxfile>
